Coordinates
version=1
nRows=19
nColumns=36
inDegrees=yes

Units are S.I. units (second, meters, Newtons, ...)
If the header above contains a line with 'inDegrees', this indicates whether rotational values are in degrees (yes) or radians (no).

endheader
time	pelvis_tilt	pelvis_list	pelvis_rotation	pelvis_tx	pelvis_ty	pelvis_tz	hip_flexion_r	hip_adduction_r	hip_rotation_r	knee_angle_r	knee_angle_r_beta	ankle_angle_r	subtalar_angle_r	mtp_angle_r	hip_flexion_l	hip_adduction_l	hip_rotation_l	knee_angle_l	knee_angle_l_beta	ankle_angle_l	subtalar_angle_l	mtp_angle_l	lumbar_extension	lumbar_bending	lumbar_rotation	arm_flex_r	arm_add_r	arm_rot_r	elbow_flex_r	pro_sup_r	arm_flex_l	arm_add_l	arm_rot_l	elbow_flex_l	pro_sup_l
      4.55000000	     -4.19097825	     -1.53065016	     14.57205938	      0.01551935	      1.26010842	      0.07756426	      4.53288659	     -2.79425124	     -6.45096186	      0.32561431	      0.00568304	      6.61064898	     -2.29116632	     -7.49999987	      3.98849419	      1.41773338	    -10.59580546	      0.53387558	      0.00931789	      5.13161082	      3.15547458	     -7.49999987	      0.57711356	      0.76439923	     -5.45141365	      4.29244111	     -7.32779510	     21.79494127	     27.41349728	     71.35054412	      0.52579731	     -8.42135777	     22.81786133	     26.55075574	     55.87393981
      4.56666670	     -4.11526494	     -1.53834209	     14.46625651	      0.01540375	      1.26022455	      0.07764145	      4.47712696	     -2.76559354	     -6.31029600	      0.32761872	      0.00571803	      6.48611427	     -2.47862105	     -7.49999987	      3.92149258	      1.37260599	    -10.61580062	      0.53924594	      0.00941162	      5.05176061	      2.93712590	     -7.49999987	      0.63612448	      0.73036961	     -5.38601271	      4.22508878	     -7.38451168	     21.95328446	     27.62407469	     71.41944179	      0.39389039	     -8.49395339	     22.85840481	     26.51878757	     55.78451665
      4.58333330	     -4.06833423	     -1.55825383	     14.42853430	      0.01557236	      1.26002809	      0.07763947	      4.42222864	     -2.72364523	     -6.33619564	      0.33275070	      0.00580760	      6.48618097	     -2.43349150	     -7.49999987	      3.87625816	      1.33887897	    -10.64480440	      0.55681509	      0.00971826	      5.05703558	      2.87254225	     -7.49999987	      0.66617083	      0.72846883	     -5.33874962	      4.15869671	     -7.43048729	     22.03761106	     27.80949039	     71.26784780	      0.23430300	     -8.54242728	     22.84557248	     26.57324674	     55.73513507
      4.60000000	     -4.11338745	     -1.53256327	     14.42289246	      0.01564718	      1.26039842	      0.07754999	      4.46423629	     -2.75251678	     -6.34318008	      0.32868822	      0.00573669	      6.45709131	     -2.51857266	     -7.49999987	      3.91897986	      1.36782383	    -10.68114161	      0.56362761	      0.00983716	      5.10949064	      2.94259337	     -7.49999987	      0.85074763	      0.64727274	     -5.30283957	      4.13107425	     -7.44353198	     22.08157236	     27.74000114	     70.91830731	      0.17235840	     -8.54497649	     22.75091684	     26.36470550	     55.70391328
      4.61666670	     -4.43578014	     -1.63983549	     14.43303981	      0.01589614	      1.25967981	      0.07742310	      4.80423182	     -2.73430889	     -6.53310798	      0.33234746	      0.00580056	      6.41590368	     -2.36815535	     -7.49999987	      4.26285764	      1.33963337	    -10.52172270	      0.53923153	      0.00941137	      5.14800021	      2.84036713	     -7.49999987	      1.46654553	      0.62522141	     -5.26716392	      3.66416314	     -7.57819985	     22.09906038	     28.52616660	     70.64085642	     -0.30666373	     -8.70072510	     22.74983449	     27.14285108	     55.78838770
      4.63333330	     -4.16312323	     -1.58448354	     14.38138692	      0.01544283	      1.26013613	      0.07759409	      4.53740010	     -2.69995153	     -6.50016647	      0.33150424	      0.00578584	      6.44267037	     -2.47048025	     -7.49999987	      3.96627789	      1.32398630	    -10.88244745	      0.51367039	      0.00896524	      5.24880424	      3.20121547	     -7.49999987	      1.23861070	      0.59872854	     -5.21187102	      4.20274274	     -7.44958757	     22.77847437	     27.37333460	     72.05335097	      0.19444806	     -8.53184318	     23.25966507	     25.85546539	     55.12816090
      4.65000000	     -3.98304178	     -1.56325767	     14.34535883	      0.01526201	      1.26032701	      0.07761005	      4.32911283	     -2.64694781	     -6.37434722	      0.31690826	      0.00553109	      6.54122637	     -2.49036791	     -7.49999987	      3.73372743	      1.28961534	    -10.90147936	      0.49458321	      0.00863211	      5.19759087	      3.00193582	     -7.49999987	      1.02523764	      0.58132931	     -5.11596897	      4.20027964	     -7.48660708	     22.61757713	     27.62802001	     71.74267261	      0.13077350	     -8.63461307	     23.19876983	     26.20075187	     55.09339284
      4.66666670	     -3.96944242	     -1.62254570	     14.36849597	      0.01490080	      1.26036397	      0.07754744	      4.28593757	     -2.55464404	     -6.35485659	      0.30077642	      0.00524954	      6.55438839	     -2.57218342	     -7.49999987	      3.70153154	      1.21215353	    -10.92671599	      0.48208571	      0.00841398	      5.21019233	      2.93414221	     -7.49999987	      1.09877874	      0.59172396	     -5.01544385	      4.05455204	     -7.55609119	     22.48897470	     27.87140969	     71.20550976	      0.07492160	     -8.66294908	     23.10219937	     26.44846513	     55.14532475
      4.68333330	     -3.93455027	     -1.65378879	     14.32540374	      0.01489874	      1.26036927	      0.07755357	      4.24216667	     -2.49446681	     -6.29453749	      0.28956195	      0.00505381	      6.67330570	     -2.48064240	     -7.49999987	      3.63758110	      1.16520544	    -11.05029979	      0.47832179	      0.00834829	      5.28151695	      2.86191028	     -7.49999987	      1.20244221	      0.61895690	     -4.88006739	      4.12360587	     -7.53616324	     22.49852843	     27.55719968	     71.10932383	      0.26551424	     -8.50974637	     23.10667885	     25.98556127	     55.05248901
      4.70000000	     -3.88825091	     -1.66358850	     14.34952497	      0.01456476	      1.26036966	      0.07750347	      4.16928738	     -2.44884266	     -6.24828765	      0.27627368	      0.00482189	      6.72556391	     -2.47336802	     -7.49999987	      3.56434220	      1.14266331	    -11.07170411	      0.47301374	      0.00825565	      5.28030816	      2.78222198	     -7.49999987	      1.22490080	      0.60698886	     -4.76916227	      4.06538831	     -7.58584945	     22.43455141	     27.61501009	     70.77081822	      0.31849663	     -8.48346113	     23.03264064	     26.00800676	     55.03957648
      4.71666670	     -3.95430301	     -1.71490372	     14.36776636	      0.01458500	      1.26004793	      0.07744551	      4.23843155	     -2.40381407	     -6.35590890	      0.26671297	      0.00465502	      6.83611845	     -2.30644837	     -7.49999987	      3.61953627	      1.10339430	    -11.13643179	      0.47662609	      0.00831869	      5.26889625	      2.78279728	     -7.49999987	      1.48801651	      0.60636054	     -4.65705557	      4.05565709	     -7.53078265	     22.44871286	     27.21294751	     70.46065791	      0.49626057	     -8.31994625	     22.96025593	     25.46757135	     54.99197402
      4.73333330	     -4.03559000	     -1.73115249	     14.32691618	      0.01424693	      1.25987970	      0.07738642	      4.32662030	     -2.41514870	     -6.31409933	      0.26045050	      0.00454572	      6.82025483	     -2.39817030	     -7.49999987	      3.68732384	      1.11528650	    -11.18538523	      0.45787361	      0.00799140	      5.12839742	      2.64930032	     -7.49999987	      1.69644691	      0.55002732	     -4.57997895	      3.86419423	     -7.62097223	     22.46714316	     27.59896083	     70.27982794	      0.34870750	     -8.41453010	     22.95571891	     25.88542155	     54.98609439
      4.75000000	     -4.04708318	     -1.72584187	     14.29998438	      0.00710906	      1.25946935	      0.07356977	      4.41125896	     -2.51358478	     -6.38386442	      0.25895724	      0.00451966	      6.86230634	     -2.43530276	     -7.49999987	      3.75567188	      1.22052568	    -11.23087083	      0.45672165	      0.00797130	      5.19740462	      2.61704769	     -7.49999987	      1.73846685	      0.57699463	     -4.57320474	      4.04098426	     -7.70687288	     22.45620256	     27.58745982	     70.30870237	      0.48334722	     -8.33482614	     22.96805240	     25.89088296	     54.97194336
      4.76666670	     -4.05727375	     -1.68779365	     14.25132805	      0.00689208	      1.25959169	      0.07358584	      4.53005857	     -2.63776651	     -6.44121322	      0.25659092	      0.00447836	      6.86787944	     -2.33841744	     -7.49999987	      3.82074276	      1.35961240	    -11.16547095	      0.44636014	      0.00779045	      5.22482191	      2.42076218	     -7.49999987	      1.77597155	      0.55285648	     -4.49846914	      4.24580375	     -7.67020468	     22.64856029	     26.99070888	     70.19209870	      0.81271421	     -8.13574986	     23.06838558	     25.32499667	     54.89065701
      4.78333330	     -4.05076368	     -1.70111235	     14.23017095	      0.01424506	      1.25995290	      0.07727876	      4.55080292	     -2.62320050	     -6.46617716	      0.25695399	      0.00448469	      6.88381544	     -2.35953547	     -7.49999987	      3.81984676	      1.35205856	    -11.17693469	      0.46786036	      0.00816570	      5.23840571	      2.41050324	     -7.49999987	      1.78446751	      0.53488325	     -4.48525795	      4.25963035	     -7.67488550	     22.65564055	     26.98975384	     70.20654173	      0.80226879	     -8.13771539	     23.07542076	     25.31559839	     54.88421382
      4.80000000	     -4.04780410	     -1.71345248	     14.25318726	      0.00691225	      1.25986838	      0.07341470	      4.57130913	     -2.68212094	     -6.52796594	      0.25815324	      0.00450562	      6.81977479	     -2.39397779	     -7.49999987	      3.85326055	      1.43961205	    -11.16590666	      0.43387079	      0.00757247	      5.32610947	      2.40313826	     -7.49999987	      1.89131896	      0.55240700	     -4.39916219	      4.23937266	     -7.75077628	     22.69915583	     26.95160595	     70.27286126	      0.71836450	     -8.00765384	     23.12532438	     25.31100946	     54.85754841
      4.81666670	     -4.23481459	     -1.68362245	     14.22835587	      0.00746645	      1.26281308	      0.07333540	      4.80324288	     -2.81349800	     -6.41498096	      0.26094434	      0.00455434	      6.74052296	     -2.53468214	     -7.49999987	      4.10810572	      1.58146967	    -11.07757994	      0.43220273	      0.00754336	      5.32443367	      2.33310997	     -7.49999987	      2.13617844	      0.47728787	     -4.36089602	      4.35557452	     -7.88026972	     23.66058468	     26.57638494	     73.47662838	      0.81025327	     -8.04145169	     24.66882383	     24.98806428	     52.95530456
      4.83333330	     -4.30057871	     -1.66848378	     14.30018047	      0.00701533	      1.25939681	      0.07336571	      4.89822349	     -2.90103588	     -6.51679056	      0.26275629	      0.00458596	      6.81747798	     -2.32619671	     -7.49999987	      4.23651223	      1.69820085	    -10.91876332	      0.42994131	      0.00750389	      5.22675643	      2.28883446	     -7.49999987	      2.09264581	      0.45263853	     -4.36345939	      4.27130348	     -7.91002073	     23.41674733	     26.79283790	     73.13870699	      0.81186377	     -8.06796477	     24.59645405	     25.23212259	     52.97724304
      4.85000000	     -4.35798142	     -1.64140478	     14.24094921	      0.00749967	      1.26266032	      0.07331878	      4.96662979	     -2.95193280	     -6.28114817	      0.26006388	      0.00453897	      6.83556146	     -2.34148691	     -7.49999987	      4.37074723	      1.79436663	    -10.78648812	      0.42760099	      0.00746305	      5.11338387	      2.28150122	     -7.49999987	      2.08964294	      0.42177902	     -4.23758112	      4.31473412	     -7.84290611	     23.23919926	     26.56097937	     72.89159954	      0.98141171	     -7.85915226	     24.68828393	     24.69092998	     52.75621743
